<svg aria-labelledby="chart-title-graph-div chart-desc-graph-div" role="img" style="overflow: hidden; max-width: 100%;" xmlns="http://www.w3.org/2000/svg" width="100%" id="graph-div" height="100%" xmlns:xlink="http://www.w3.org/1999/xlink" xmlns:ev="http://www.w3.org/2001/xml-events"><style>@import url("https://cdnjs.cloudflare.com/ajax/libs/font-awesome/6.2.0/css/all.min.css");'</style><defs><symbol height="24" width="24" id="computer"><path d="M2 2v13h20v-13h-20zm18 11h-16v-9h16v9zm-10.228 6l.466-1h3.524l.467 1h-4.457zm14.228 3h-24l2-6h2.104l-1.33 4h18.45l-1.297-4h2.073l2 6zm-5-10h-14v-7h14v7z" transform="scale(.5)"></path></symbol><style id="svg-pan-zoom-controls-styles" type="text/css">.svg-pan-zoom-control { cursor: pointer; fill: black; fill-opacity: 0.333; } .svg-pan-zoom-control:hover { fill-opacity: 0.8; } .svg-pan-zoom-control-background { fill: white; fill-opacity: 0.5; } .svg-pan-zoom-control-background { fill-opacity: 0.8; }</style></defs><defs><symbol clip-rule="evenodd" fill-rule="evenodd" id="database"><path d="M12.258.001l.256.004.255.005.253.008.251.01.249.012.247.015.246.016.242.019.241.02.239.023.236.024.233.027.231.028.229.031.225.032.223.034.22.036.217.038.214.04.211.041.208.043.205.045.201.046.198.048.194.05.191.051.187.053.183.054.18.056.175.057.172.059.168.06.163.061.16.063.155.064.15.066.074.033.073.033.071.034.07.034.069.035.068.035.067.035.066.035.064.036.064.036.062.036.06.036.06.037.058.037.058.037.055.038.055.038.053.038.052.038.051.039.05.039.048.039.047.039.045.04.044.04.043.04.041.04.04.041.039.041.037.041.036.041.034.041.033.042.032.042.03.042.029.042.027.042.026.043.024.043.023.043.021.043.02.043.018.044.017.043.015.044.013.044.012.044.011.045.009.044.007.045.006.045.004.045.002.045.001.045v17l-.001.045-.002.045-.004.045-.006.045-.007.045-.009.044-.011.045-.012.044-.013.044-.015.044-.017.043-.018.044-.02.043-.021.043-.023.043-.024.043-.026.043-.027.042-.029.042-.03.042-.032.042-.033.042-.034.041-.036.041-.037.041-.039.041-.04.041-.041.04-.043.04-.044.04-.045.04-.047.039-.048.039-.05.039-.051.039-.052.038-.053.038-.055.038-.055.038-.058.037-.058.037-.06.037-.06.036-.062.036-.064.036-.064.036-.066.035-.067.035-.068.035-.069.035-.07.034-.071.034-.073.033-.074.033-.15.066-.155.064-.16.063-.163.061-.168.06-.172.059-.175.057-.18.056-.183.054-.187.053-.191.051-.194.05-.198.048-.201.046-.205.045-.208.043-.211.041-.214.04-.217.038-.22.036-.223.034-.225.032-.229.031-.231.028-.233.027-.236.024-.239.023-.241.02-.242.019-.246.016-.247.015-.249.012-.251.01-.253.008-.255.005-.256.004-.258.001-.258-.001-.256-.004-.255-.005-.253-.008-.251-.01-.249-.012-.247-.015-.245-.016-.243-.019-.241-.02-.238-.023-.236-.024-.234-.027-.231-.028-.228-.031-.226-.032-.223-.034-.22-.036-.217-.038-.214-.04-.211-.041-.208-.043-.204-.045-.201-.046-.198-.048-.195-.05-.19-.051-.187-.053-.184-.054-.179-.056-.176-.057-.172-.059-.167-.06-.164-.061-.159-.063-.155-.064-.151-.066-.074-.033-.072-.033-.072-.034-.07-.034-.069-.035-.068-.035-.067-.035-.066-.035-.064-.036-.063-.036-.062-.036-.061-.036-.06-.037-.058-.037-.057-.037-.056-.038-.055-.038-.053-.038-.052-.038-.051-.039-.049-.039-.049-.039-.046-.039-.046-.04-.044-.04-.043-.04-.041-.04-.04-.041-.039-.041-.037-.041-.036-.041-.034-.041-.033-.042-.032-.042-.03-.042-.029-.042-.027-.042-.026-.043-.024-.043-.023-.043-.021-.043-.02-.043-.018-.044-.017-.043-.015-.044-.013-.044-.012-.044-.011-.045-.009-.044-.007-.045-.006-.045-.004-.045-.002-.045-.001-.045v-17l.001-.045.002-.045.004-.045.006-.045.007-.045.009-.044.011-.045.012-.044.013-.044.015-.044.017-.043.018-.044.02-.043.021-.043.023-.043.024-.043.026-.043.027-.042.029-.042.03-.042.032-.042.033-.042.034-.041.036-.041.037-.041.039-.041.04-.041.041-.04.043-.04.044-.04.046-.04.046-.039.049-.039.049-.039.051-.039.052-.038.053-.038.055-.038.056-.038.057-.037.058-.037.06-.037.061-.036.062-.036.063-.036.064-.036.066-.035.067-.035.068-.035.069-.035.07-.034.072-.034.072-.033.074-.033.151-.066.155-.064.159-.063.164-.061.167-.06.172-.059.176-.057.179-.056.184-.054.187-.053.19-.051.195-.05.198-.048.201-.046.204-.045.208-.043.211-.041.214-.04.217-.038.22-.036.223-.034.226-.032.228-.031.231-.028.234-.027.236-.024.238-.023.241-.02.243-.019.245-.016.247-.015.249-.012.251-.01.253-.008.255-.005.256-.004.258-.001.258.001zm-9.258 20.499v.01l.001.021.003.021.004.022.005.021.006.022.007.022.009.023.01.022.011.023.012.023.013.023.015.023.016.024.017.023.018.024.019.024.021.024.022.025.023.024.024.025.052.049.056.05.061.051.066.051.07.051.075.051.079.052.084.052.088.052.092.052.097.052.102.051.105.052.11.052.114.051.119.051.123.051.127.05.131.05.135.05.139.048.144.049.147.047.152.047.155.047.16.045.163.045.167.043.171.043.176.041.178.041.183.039.187.039.19.037.194.035.197.035.202.033.204.031.209.03.212.029.216.027.219.025.222.024.226.021.23.02.233.018.236.016.24.015.243.012.246.01.249.008.253.005.256.004.259.001.26-.001.257-.004.254-.005.25-.008.247-.011.244-.012.241-.014.237-.016.233-.018.231-.021.226-.021.224-.024.22-.026.216-.027.212-.028.21-.031.205-.031.202-.034.198-.034.194-.036.191-.037.187-.039.183-.04.179-.04.175-.042.172-.043.168-.044.163-.045.16-.046.155-.046.152-.047.148-.048.143-.049.139-.049.136-.05.131-.05.126-.05.123-.051.118-.052.114-.051.11-.052.106-.052.101-.052.096-.052.092-.052.088-.053.083-.051.079-.052.074-.052.07-.051.065-.051.06-.051.056-.05.051-.05.023-.024.023-.025.021-.024.02-.024.019-.024.018-.024.017-.024.015-.023.014-.024.013-.023.012-.023.01-.023.01-.022.008-.022.006-.022.006-.022.004-.022.004-.021.001-.021.001-.021v-4.127l-.077.055-.08.053-.083.054-.085.053-.087.052-.09.052-.093.051-.095.05-.097.05-.1.049-.102.049-.105.048-.106.047-.109.047-.111.046-.114.045-.115.045-.118.044-.12.043-.122.042-.124.042-.126.041-.128.04-.13.04-.132.038-.134.038-.135.037-.138.037-.139.035-.142.035-.143.034-.144.033-.147.032-.148.031-.15.03-.151.03-.153.029-.154.027-.156.027-.158.026-.159.025-.161.024-.162.023-.163.022-.165.021-.166.02-.167.019-.169.018-.169.017-.171.016-.173.015-.173.014-.175.013-.175.012-.177.011-.178.01-.179.008-.179.008-.181.006-.182.005-.182.004-.184.003-.184.002h-.37l-.184-.002-.184-.003-.182-.004-.182-.005-.181-.006-.179-.008-.179-.008-.178-.01-.176-.011-.176-.012-.175-.013-.173-.014-.172-.015-.171-.016-.17-.017-.169-.018-.167-.019-.166-.02-.165-.021-.163-.022-.162-.023-.161-.024-.159-.025-.157-.026-.156-.027-.155-.027-.153-.029-.151-.03-.15-.03-.148-.031-.146-.032-.145-.033-.143-.034-.141-.035-.14-.035-.137-.037-.136-.037-.134-.038-.132-.038-.13-.04-.128-.04-.126-.041-.124-.042-.122-.042-.12-.044-.117-.043-.116-.045-.113-.045-.112-.046-.109-.047-.106-.047-.105-.048-.102-.049-.1-.049-.097-.05-.095-.05-.093-.052-.09-.051-.087-.052-.085-.053-.083-.054-.08-.054-.077-.054v4.127zm0-5.654v.011l.001.021.003.021.004.021.005.022.006.022.007.022.009.022.01.022.011.023.012.023.013.023.015.024.016.023.017.024.018.024.019.024.021.024.022.024.023.025.024.024.052.05.056.05.061.05.066.051.07.051.075.052.079.051.084.052.088.052.092.052.097.052.102.052.105.052.11.051.114.051.119.052.123.05.127.051.131.05.135.049.139.049.144.048.147.048.152.047.155.046.16.045.163.045.167.044.171.042.176.042.178.04.183.04.187.038.19.037.194.036.197.034.202.033.204.032.209.03.212.028.216.027.219.025.222.024.226.022.23.02.233.018.236.016.24.014.243.012.246.01.249.008.253.006.256.003.259.001.26-.001.257-.003.254-.006.25-.008.247-.01.244-.012.241-.015.237-.016.233-.018.231-.02.226-.022.224-.024.22-.025.216-.027.212-.029.21-.03.205-.032.202-.033.198-.035.194-.036.191-.037.187-.039.183-.039.179-.041.175-.042.172-.043.168-.044.163-.045.16-.045.155-.047.152-.047.148-.048.143-.048.139-.05.136-.049.131-.05.126-.051.123-.051.118-.051.114-.052.11-.052.106-.052.101-.052.096-.052.092-.052.088-.052.083-.052.079-.052.074-.051.07-.052.065-.051.06-.05.056-.051.051-.049.023-.025.023-.024.021-.025.02-.024.019-.024.018-.024.017-.024.015-.023.014-.023.013-.024.012-.022.01-.023.01-.023.008-.022.006-.022.006-.022.004-.021.004-.022.001-.021.001-.021v-4.139l-.077.054-.08.054-.083.054-.085.052-.087.053-.09.051-.093.051-.095.051-.097.05-.1.049-.102.049-.105.048-.106.047-.109.047-.111.046-.114.045-.115.044-.118.044-.12.044-.122.042-.124.042-.126.041-.128.04-.13.039-.132.039-.134.038-.135.037-.138.036-.139.036-.142.035-.143.033-.144.033-.147.033-.148.031-.15.03-.151.03-.153.028-.154.028-.156.027-.158.026-.159.025-.161.024-.162.023-.163.022-.165.021-.166.02-.167.019-.169.018-.169.017-.171.016-.173.015-.173.014-.175.013-.175.012-.177.011-.178.009-.179.009-.179.007-.181.007-.182.005-.182.004-.184.003-.184.002h-.37l-.184-.002-.184-.003-.182-.004-.182-.005-.181-.007-.179-.007-.179-.009-.178-.009-.176-.011-.176-.012-.175-.013-.173-.014-.172-.015-.171-.016-.17-.017-.169-.018-.167-.019-.166-.02-.165-.021-.163-.022-.162-.023-.161-.024-.159-.025-.157-.026-.156-.027-.155-.028-.153-.028-.151-.03-.15-.03-.148-.031-.146-.033-.145-.033-.143-.033-.141-.035-.14-.036-.137-.036-.136-.037-.134-.038-.132-.039-.13-.039-.128-.04-.126-.041-.124-.042-.122-.043-.12-.043-.117-.044-.116-.044-.113-.046-.112-.046-.109-.046-.106-.047-.105-.048-.102-.049-.1-.049-.097-.05-.095-.051-.093-.051-.09-.051-.087-.053-.085-.052-.083-.054-.08-.054-.077-.054v4.139zm0-5.666v.011l.001.02.003.022.004.021.005.022.006.021.007.022.009.023.01.022.011.023.012.023.013.023.015.023.016.024.017.024.018.023.019.024.021.025.022.024.023.024.024.025.052.05.056.05.061.05.066.051.07.051.075.052.079.051.084.052.088.052.092.052.097.052.102.052.105.051.11.052.114.051.119.051.123.051.127.05.131.05.135.05.139.049.144.048.147.048.152.047.155.046.16.045.163.045.167.043.171.043.176.042.178.04.183.04.187.038.19.037.194.036.197.034.202.033.204.032.209.03.212.028.216.027.219.025.222.024.226.021.23.02.233.018.236.017.24.014.243.012.246.01.249.008.253.006.256.003.259.001.26-.001.257-.003.254-.006.25-.008.247-.01.244-.013.241-.014.237-.016.233-.018.231-.02.226-.022.224-.024.22-.025.216-.027.212-.029.21-.03.205-.032.202-.033.198-.035.194-.036.191-.037.187-.039.183-.039.179-.041.175-.042.172-.043.168-.044.163-.045.16-.045.155-.047.152-.047.148-.048.143-.049.139-.049.136-.049.131-.051.126-.05.123-.051.118-.052.114-.051.11-.052.106-.052.101-.052.096-.052.092-.052.088-.052.083-.052.079-.052.074-.052.07-.051.065-.051.06-.051.056-.05.051-.049.023-.025.023-.025.021-.024.02-.024.019-.024.018-.024.017-.024.015-.023.014-.024.013-.023.012-.023.01-.022.01-.023.008-.022.006-.022.006-.022.004-.022.004-.021.001-.021.001-.021v-4.153l-.077.054-.08.054-.083.053-.085.053-.087.053-.09.051-.093.051-.095.051-.097.05-.1.049-.102.048-.105.048-.106.048-.109.046-.111.046-.114.046-.115.044-.118.044-.12.043-.122.043-.124.042-.126.041-.128.04-.13.039-.132.039-.134.038-.135.037-.138.036-.139.036-.142.034-.143.034-.144.033-.147.032-.148.032-.15.03-.151.03-.153.028-.154.028-.156.027-.158.026-.159.024-.161.024-.162.023-.163.023-.165.021-.166.02-.167.019-.169.018-.169.017-.171.016-.173.015-.173.014-.175.013-.175.012-.177.01-.178.01-.179.009-.179.007-.181.006-.182.006-.182.004-.184.003-.184.001-.185.001-.185-.001-.184-.001-.184-.003-.182-.004-.182-.006-.181-.006-.179-.007-.179-.009-.178-.01-.176-.01-.176-.012-.175-.013-.173-.014-.172-.015-.171-.016-.17-.017-.169-.018-.167-.019-.166-.02-.165-.021-.163-.023-.162-.023-.161-.024-.159-.024-.157-.026-.156-.027-.155-.028-.153-.028-.151-.03-.15-.03-.148-.032-.146-.032-.145-.033-.143-.034-.141-.034-.14-.036-.137-.036-.136-.037-.134-.038-.132-.039-.13-.039-.128-.041-.126-.041-.124-.041-.122-.043-.12-.043-.117-.044-.116-.044-.113-.046-.112-.046-.109-.046-.106-.048-.105-.048-.102-.048-.1-.05-.097-.049-.095-.051-.093-.051-.09-.052-.087-.052-.085-.053-.083-.053-.08-.054-.077-.054v4.153zm8.74-8.179l-.257.004-.254.005-.25.008-.247.011-.244.012-.241.014-.237.016-.233.018-.231.021-.226.022-.224.023-.22.026-.216.027-.212.028-.21.031-.205.032-.202.033-.198.034-.194.036-.191.038-.187.038-.183.04-.179.041-.175.042-.172.043-.168.043-.163.045-.16.046-.155.046-.152.048-.148.048-.143.048-.139.049-.136.05-.131.05-.126.051-.123.051-.118.051-.114.052-.11.052-.106.052-.101.052-.096.052-.092.052-.088.052-.083.052-.079.052-.074.051-.07.052-.065.051-.06.05-.056.05-.051.05-.023.025-.023.024-.021.024-.02.025-.019.024-.018.024-.017.023-.015.024-.014.023-.013.023-.012.023-.01.023-.01.022-.008.022-.006.023-.006.021-.004.022-.004.021-.001.021-.001.021.001.021.001.021.004.021.004.022.006.021.006.023.008.022.01.022.01.023.012.023.013.023.014.023.015.024.017.023.018.024.019.024.02.025.021.024.023.024.023.025.051.05.056.05.06.05.065.051.07.052.074.051.079.052.083.052.088.052.092.052.096.052.101.052.106.052.11.052.114.052.118.051.123.051.126.051.131.05.136.05.139.049.143.048.148.048.152.048.155.046.16.046.163.045.168.043.172.043.175.042.179.041.183.04.187.038.191.038.194.036.198.034.202.033.205.032.21.031.212.028.216.027.22.026.224.023.226.022.231.021.233.018.237.016.241.014.244.012.247.011.25.008.254.005.257.004.26.001.26-.001.257-.004.254-.005.25-.008.247-.011.244-.012.241-.014.237-.016.233-.018.231-.021.226-.022.224-.023.22-.026.216-.027.212-.028.21-.031.205-.032.202-.033.198-.034.194-.036.191-.038.187-.038.183-.04.179-.041.175-.042.172-.043.168-.043.163-.045.16-.046.155-.046.152-.048.148-.048.143-.048.139-.049.136-.05.131-.05.126-.051.123-.051.118-.051.114-.052.11-.052.106-.052.101-.052.096-.052.092-.052.088-.052.083-.052.079-.052.074-.051.07-.052.065-.051.06-.05.056-.05.051-.05.023-.025.023-.024.021-.024.02-.025.019-.024.018-.024.017-.023.015-.024.014-.023.013-.023.012-.023.01-.023.01-.022.008-.022.006-.023.006-.021.004-.022.004-.021.001-.021.001-.021-.001-.021-.001-.021-.004-.021-.004-.022-.006-.021-.006-.023-.008-.022-.01-.022-.01-.023-.012-.023-.013-.023-.014-.023-.015-.024-.017-.023-.018-.024-.019-.024-.02-.025-.021-.024-.023-.024-.023-.025-.051-.05-.056-.05-.06-.05-.065-.051-.07-.052-.074-.051-.079-.052-.083-.052-.088-.052-.092-.052-.096-.052-.101-.052-.106-.052-.11-.052-.114-.052-.118-.051-.123-.051-.126-.051-.131-.05-.136-.05-.139-.049-.143-.048-.148-.048-.152-.048-.155-.046-.16-.046-.163-.045-.168-.043-.172-.043-.175-.042-.179-.041-.183-.04-.187-.038-.191-.038-.194-.036-.198-.034-.202-.033-.205-.032-.21-.031-.212-.028-.216-.027-.22-.026-.224-.023-.226-.022-.231-.021-.233-.018-.237-.016-.241-.014-.244-.012-.247-.011-.25-.008-.254-.005-.257-.004-.26-.001-.26.001z" transform="scale(.5)"></path></symbol></defs><defs><symbol height="24" width="24" id="clock"><path d="M12 2c5.514 0 10 4.486 10 10s-4.486 10-10 10-10-4.486-10-10 4.486-10 10-10zm0-2c-6.627 0-12 5.373-12 12s5.373 12 12 12 12-5.373 12-12-5.373-12-12-12zm5.848 12.459c.202.038.202.333.001.372-1.907.361-6.045 1.111-6.547 1.111-.719 0-1.301-.582-1.301-1.301 0-.512.77-5.447 1.125-7.445.034-.192.312-.181.343.014l.985 6.238 5.394 1.011z" transform="scale(.5)"></path></symbol></defs><defs><marker orient="auto" markerHeight="12" markerWidth="12" markerUnits="userSpaceOnUse" refY="5" refX="9" id="arrowhead"><path d="M 0 0 L 10 5 L 0 10 z"></path></marker></defs><defs><marker refY="4" refX="16" orient="auto" markerHeight="8" markerWidth="15" id="crosshead"><path style="stroke-dasharray: 0, 0;" d="M 9,2 V 6 L16,4 Z" stroke-width="1px" stroke="#000000" fill="black"></path><path style="stroke-dasharray: 0, 0;" d="M 0,1 L 6,7 M 6,1 L 0,7" stroke-width="1px" stroke="#000000" fill="none"></path></marker></defs><defs><marker orient="auto" markerHeight="28" markerWidth="20" refY="7" refX="18" id="filled-head"><path d="M 18,7 L9,13 L14,7 L9,1 Z"></path></marker></defs><defs><marker orient="auto" markerHeight="40" markerWidth="60" refY="15" refX="15" id="sequencenumber"><circle r="6" cy="15" cx="15"></circle></marker></defs><g id="viewport-20221122204336703" class="svg-pan-zoom_viewport" transform="matrix(0.28972421067737475,0,0,0.28972421067737475,205.0296809316898,181.8841430729675)" style="transform: matrix(0.289724, 0, 0, 0.289724, 205.03, 181.884);"><title id="chart-title-graph-div"></title><desc id="chart-desc-graph-div"></desc><style>#graph-div {font-family:"trebuchet ms",verdana,arial,sans-serif;font-size:16px;fill:#333;}#graph-div .error-icon{fill:#552222;}#graph-div .error-text{fill:#552222;stroke:#552222;}#graph-div .edge-thickness-normal{stroke-width:2px;}#graph-div .edge-thickness-thick{stroke-width:3.5px;}#graph-div .edge-pattern-solid{stroke-dasharray:0;}#graph-div .edge-pattern-dashed{stroke-dasharray:3;}#graph-div .edge-pattern-dotted{stroke-dasharray:2;}#graph-div .marker{fill:#333333;stroke:#333333;}#graph-div .marker.cross{stroke:#333333;}#graph-div svg{font-family:"trebuchet ms",verdana,arial,sans-serif;font-size:16px;}#graph-div .actor{stroke:hsl(259.6261682243, 59.7765363128%, 87.9019607843%);fill:#ECECFF;}#graph-div text.actor&gt;tspan{fill:black;stroke:none;}#graph-div .actor-line{stroke:grey;}#graph-div .messageLine0{stroke-width:1.5;stroke-dasharray:none;stroke:#333;}#graph-div .messageLine1{stroke-width:1.5;stroke-dasharray:2,2;stroke:#333;}#graph-div #arrowhead path{fill:#333;stroke:#333;}#graph-div .sequenceNumber{fill:white;}#graph-div #sequencenumber{fill:#333;}#graph-div #crosshead path{fill:#333;stroke:#333;}#graph-div .messageText{fill:#333;stroke:none;}#graph-div .labelBox{stroke:hsl(259.6261682243, 59.7765363128%, 87.9019607843%);fill:#ECECFF;}#graph-div .labelText,#graph-div .labelText&gt;tspan{fill:black;stroke:none;}#graph-div .loopText,#graph-div .loopText&gt;tspan{fill:black;stroke:none;}#graph-div .loopLine{stroke-width:2px;stroke-dasharray:2,2;stroke:hsl(259.6261682243, 59.7765363128%, 87.9019607843%);fill:hsl(259.6261682243, 59.7765363128%, 87.9019607843%);}#graph-div .note{stroke:#aaaa33;fill:#fff5ad;}#graph-div .noteText,#graph-div .noteText&gt;tspan{fill:black;stroke:none;}#graph-div .activation0{fill:#f4f4f4;stroke:#666;}#graph-div .activation1{fill:#f4f4f4;stroke:#666;}#graph-div .activation2{fill:#f4f4f4;stroke:#666;}#graph-div .actorPopupMenu{position:absolute;}#graph-div .actorPopupMenuPanel{position:absolute;fill:#ECECFF;box-shadow:0px 8px 16px 0px rgba(0,0,0,0.2);filter:drop-shadow(3px 5px 2px rgb(0 0 0 / 0.4));}#graph-div .actor-man line{stroke:hsl(259.6261682243, 59.7765363128%, 87.9019607843%);fill:#ECECFF;}#graph-div .actor-man circle,#graph-div line{stroke:hsl(259.6261682243, 59.7765363128%, 87.9019607843%);fill:#ECECFF;stroke-width:2px;}#graph-div :root{--mermaid-font-family:"trebuchet ms",verdana,arial,sans-serif;}</style><g></g><g><line stroke="#999" stroke-width="0.5px" class="200" y2="3121" x2="75" y1="5" x1="75" id="actor4841"></line><g id="root-4841"><rect class="actor" ry="3" rx="3" height="65" width="150" stroke="#666" fill="#eaeaea" y="0" x="0"></rect><text style="text-anchor: middle; font-size: 16px; font-weight: 400;" class="actor" alignment-baseline="central" dominant-baseline="central" y="32.5" x="75"><tspan dy="0" x="75">User</tspan></text></g></g><g><line stroke="#999" stroke-width="0.5px" class="200" y2="3121" x2="500" y1="5" x1="500" id="actor4842"></line><g id="root-4842"><rect class="actor" ry="3" rx="3" height="65" width="150" stroke="#666" fill="#eaeaea" y="0" x="425"></rect><text style="text-anchor: middle; font-size: 16px; font-weight: 400;" class="actor" alignment-baseline="central" dominant-baseline="central" y="32.5" x="500"><tspan dy="0" x="500">Console</tspan></text></g></g><g><line stroke="#999" stroke-width="0.5px" class="200" y2="3121" x2="1050" y1="5" x1="1050" id="actor4843"></line><g id="root-4843"><rect class="actor" ry="3" rx="3" height="65" width="150" stroke="#666" fill="#eaeaea" y="0" x="975"></rect><text style="text-anchor: middle; font-size: 16px; font-weight: 400;" class="actor" alignment-baseline="central" dominant-baseline="central" y="32.5" x="1050"><tspan dy="0" x="1050">Security Manager</tspan></text></g></g><g><line stroke="#999" stroke-width="0.5px" class="200" y2="3121" x2="1561" y1="5" x1="1561" id="actor4844"></line><g id="root-4844"><rect class="actor" ry="3" rx="3" height="65" width="179" stroke="#666" fill="#eaeaea" y="0" x="1471.5"></rect><text style="text-anchor: middle; font-size: 16px; font-weight: 400;" class="actor" alignment-baseline="central" dominant-baseline="central" y="32.5" x="1561"><tspan dy="0" x="1561">Authentication Service</tspan></text></g></g><g><line stroke="#999" stroke-width="0.5px" class="200" y2="3121" x2="2093" y1="5" x1="2093" id="actor4845"></line><g id="root-4845"><rect class="actor" ry="3" rx="3" height="65" width="150" stroke="#666" fill="#eaeaea" y="0" x="2018"></rect><text style="text-anchor: middle; font-size: 16px; font-weight: 400;" class="actor" alignment-baseline="central" dominant-baseline="central" y="32.5" x="2093"><tspan dy="0" x="2093">Results</tspan></text></g></g><g><line stroke="#999" stroke-width="0.5px" class="200" y2="3121" x2="2293" y1="5" x1="2293" id="actor4846"></line><g id="root-4846"><rect class="actor" ry="3" rx="3" height="65" width="150" stroke="#666" fill="#eaeaea" y="0" x="2218"></rect><text style="text-anchor: middle; font-size: 16px; font-weight: 400;" class="actor" alignment-baseline="central" dominant-baseline="central" y="32.5" x="2293"><tspan dy="0" x="2293">SqlDAO</tspan></text></g></g><g><line stroke="#999" stroke-width="0.5px" class="200" y2="3121" x2="2692" y1="5" x1="2692" id="actor4847"></line><g id="root-4847"><rect class="actor" ry="3" rx="3" height="65" width="150" stroke="#666" fill="#eaeaea" y="0" x="2617"></rect><text style="text-anchor: middle; font-size: 16px; font-weight: 400;" class="actor" alignment-baseline="central" dominant-baseline="central" y="32.5" x="2692"><tspan dy="0" x="2692">User Account</tspan></text></g></g><g><line stroke="#999" stroke-width="0.5px" class="200" y2="3121" x2="2892" y1="5" x1="2892" id="actor4848"></line><g id="root-4848"><rect class="actor" ry="3" rx="3" height="65" width="150" stroke="#666" fill="#eaeaea" y="0" x="2817"></rect><text style="text-anchor: middle; font-size: 16px; font-weight: 400;" class="actor" alignment-baseline="central" dominant-baseline="central" y="32.5" x="2892"><tspan dy="0" x="2892">Utification DS</tspan></text></g></g><g><rect class="activation0" ry="0" rx="0" height="3016" width="10" stroke="#666" fill="#EDF2AE" y="65" x="70"></rect></g><g><rect class="activation0" ry="0" rx="0" height="1062" width="10" stroke="#666" fill="#EDF2AE" y="119" x="495"></rect></g><g><rect class="activation0" ry="0" rx="0" height="132" width="10" stroke="#666" fill="#EDF2AE" y="171" x="1045"></rect></g><g><rect class="activation0" ry="0" rx="0" height="690" width="10" stroke="#666" fill="#EDF2AE" y="357" x="1045"></rect></g><g><rect class="activation0" ry="0" rx="0" height="318" width="10" stroke="#666" fill="#EDF2AE" y="409" x="1556"></rect></g><g><rect class="activation0" ry="0" rx="0" height="132" width="10" stroke="#666" fill="#EDF2AE" y="461" x="2687"></rect></g><g><rect class="activation0" ry="0" rx="0" height="132" width="10" stroke="#666" fill="#EDF2AE" y="781" x="2088"></rect></g><g><rect class="activation0" ry="0" rx="0" height="132" width="10" stroke="#666" fill="#EDF2AE" y="1235" x="495"></rect></g><g><rect class="activation0" ry="0" rx="0" height="1660" width="10" stroke="#666" fill="#EDF2AE" y="1421" x="495"></rect></g><g><rect class="activation0" ry="0" rx="0" height="1310" width="10" stroke="#666" fill="#EDF2AE" y="1555" x="1045"></rect></g><g><rect class="activation0" ry="0" rx="0" height="670" width="10" stroke="#666" fill="#EDF2AE" y="1607" x="1556"></rect></g><g><rect class="activation0" ry="0" rx="0" height="132" width="10" stroke="#666" fill="#EDF2AE" y="1659" x="2288"></rect></g><g><rect class="activation0" ry="0" rx="0" height="380" width="10" stroke="#666" fill="#EDF2AE" y="1845" x="2288"></rect></g><g><rect class="activation0" ry="0" rx="0" height="132" width="10" stroke="#666" fill="#EDF2AE" y="1855" x="2887"></rect></g><g><rect class="activation0" ry="0" rx="0" height="132" width="10" stroke="#666" fill="#EDF2AE" y="2041" x="2687"></rect></g><g><rect class="activation0" ry="0" rx="0" height="318" width="10" stroke="#666" fill="#EDF2AE" y="2413" x="1556"></rect></g><g><rect class="activation0" ry="0" rx="0" height="132" width="10" stroke="#666" fill="#EDF2AE" y="2465" x="2088"></rect></g><text style="font-size: 16px; font-weight: 400;" dy="1em" class="messageText" alignment-baseline="middle" dominant-baseline="middle" text-anchor="middle" y="80" x="290">User wants to log in</text><line style="fill: none;" marker-end="url(#arrowhead)" stroke="none" stroke-width="2" class="messageLine0" y2="117" x2="500" y1="117" x1="80"></line><text style="font-size: 16px; font-weight: 400;" dy="1em" class="messageText" alignment-baseline="middle" dominant-baseline="middle" text-anchor="middle" y="132" x="778">var secManager = new SecurityManager()</text><line style="fill: none;" marker-end="url(#arrowhead)" stroke="none" stroke-width="2" class="messageLine0" y2="169" x2="1050" y1="169" x1="505"></line><text style="font-size: 16px; font-weight: 400;" dy="1em" class="messageText" alignment-baseline="middle" dominant-baseline="middle" text-anchor="middle" y="184" x="1055">SecurityManager()</text><path style="fill: none;" marker-end="url(#arrowhead)" stroke="none" stroke-width="2" class="messageLine0" d="M 1055,221 C 1115,211 1115,251 1055,241"></path><text style="font-size: 16px; font-weight: 400;" dy="1em" class="messageText" alignment-baseline="middle" dominant-baseline="middle" text-anchor="middle" y="266" x="775">return SecurityManager instance</text><line style="stroke-dasharray: 3, 3; fill: none;" marker-end="url(#arrowhead)" stroke="none" stroke-width="2" class="messageLine1" y2="303" x2="505" y1="303" x1="1045"></line><text style="font-size: 16px; font-weight: 400;" dy="1em" class="messageText" alignment-baseline="middle" dominant-baseline="middle" text-anchor="middle" y="318" x="778">secManager.isActive(): Results</text><line style="fill: none;" marker-end="url(#arrowhead)" stroke="none" stroke-width="2" class="messageLine0" y2="355" x2="1050" y1="355" x1="505"></line><text style="font-size: 16px; font-weight: 400;" dy="1em" class="messageText" alignment-baseline="middle" dominant-baseline="middle" text-anchor="middle" y="370" x="1308">var authNService = new AuthenticationService()</text><line style="fill: none;" marker-end="url(#arrowhead)" stroke="none" stroke-width="2" class="messageLine0" y2="407" x2="1561" y1="407" x1="1055"></line><text style="font-size: 16px; font-weight: 400;" dy="1em" class="messageText" alignment-baseline="middle" dominant-baseline="middle" text-anchor="middle" y="422" x="2129">var authNUser = new UserAccount()</text><line style="fill: none;" marker-end="url(#arrowhead)" stroke="none" stroke-width="2" class="messageLine0" y2="459" x2="2692" y1="459" x1="1566"></line><text style="font-size: 16px; font-weight: 400;" dy="1em" class="messageText" alignment-baseline="middle" dominant-baseline="middle" text-anchor="middle" y="474" x="2697">UserAccount()</text><path style="fill: none;" marker-end="url(#arrowhead)" stroke="none" stroke-width="2" class="messageLine0" d="M 2697,511 C 2757,501 2757,541 2697,531"></path><text style="font-size: 16px; font-weight: 400;" dy="1em" class="messageText" alignment-baseline="middle" dominant-baseline="middle" text-anchor="middle" y="556" x="2127">return Users instance</text><line style="stroke-dasharray: 3, 3; fill: none;" marker-end="url(#arrowhead)" stroke="none" stroke-width="2" class="messageLine1" y2="593" x2="1566" y1="593" x1="2687"></line><text style="font-size: 16px; font-weight: 400;" dy="1em" class="messageText" alignment-baseline="middle" dominant-baseline="middle" text-anchor="middle" y="608" x="1566">AuthenticationService(authNUser)</text><path style="fill: none;" marker-end="url(#arrowhead)" stroke="none" stroke-width="2" class="messageLine0" d="M 1566,645 C 1626,635 1626,675 1566,665"></path><text style="font-size: 16px; font-weight: 400;" dy="1em" class="messageText" alignment-baseline="middle" dominant-baseline="middle" text-anchor="middle" y="690" x="1306">return Authentication Service instance</text><line style="stroke-dasharray: 3, 3; fill: none;" marker-end="url(#arrowhead)" stroke="none" stroke-width="2" class="messageLine1" y2="727" x2="1055" y1="727" x1="1556"></line><text style="font-size: 16px; font-weight: 400;" dy="1em" class="messageText" alignment-baseline="middle" dominant-baseline="middle" text-anchor="middle" y="742" x="1574">var result = new Results()</text><line style="fill: none;" marker-end="url(#arrowhead)" stroke="none" stroke-width="2" class="messageLine0" y2="779" x2="2093" y1="779" x1="1055"></line><text style="font-size: 16px; font-weight: 400;" dy="1em" class="messageText" alignment-baseline="middle" dominant-baseline="middle" text-anchor="middle" y="794" x="2098">Results()</text><path style="fill: none;" marker-end="url(#arrowhead)" stroke="none" stroke-width="2" class="messageLine0" d="M 2098,831 C 2158,821 2158,861 2098,851"></path><text style="font-size: 16px; font-weight: 400;" dy="1em" class="messageText" alignment-baseline="middle" dominant-baseline="middle" text-anchor="middle" y="876" x="1572">return Results instance</text><line style="stroke-dasharray: 3, 3; fill: none;" marker-end="url(#arrowhead)" stroke="none" stroke-width="2" class="messageLine1" y2="913" x2="1055" y1="913" x1="2088"></line><text style="font-size: 16px; font-weight: 400;" dy="1em" class="messageText" alignment-baseline="middle" dominant-baseline="middle" text-anchor="middle" y="928" x="1055">if(authNService.getUsername() == null) result.IsSuccessful = false else result.IsSuccessful = true</text><path style="fill: none;" marker-end="url(#arrowhead)" stroke="none" stroke-width="2" class="messageLine0" d="M 1055,965 C 1115,955 1115,995 1055,985"></path><text style="font-size: 16px; font-weight: 400;" dy="1em" class="messageText" alignment-baseline="middle" dominant-baseline="middle" text-anchor="middle" y="1010" x="775">return result</text><line style="stroke-dasharray: 3, 3; fill: none;" marker-end="url(#arrowhead)" stroke="none" stroke-width="2" class="messageLine1" y2="1047" x2="505" y1="1047" x1="1045"></line><text style="font-size: 16px; font-weight: 400;" dy="1em" class="messageText" alignment-baseline="middle" dominant-baseline="middle" text-anchor="middle" y="1062" x="505">if (secManager.isActive().IsSuccessful == 1) Console.WriteLine("User is already logged in.") else Console.WriteLine("Enter username:")</text><path style="fill: none;" marker-end="url(#arrowhead)" stroke="none" stroke-width="2" class="messageLine0" d="M 505,1099 C 565,1089 565,1129 505,1119"></path><text style="font-size: 16px; font-weight: 400;" dy="1em" class="messageText" alignment-baseline="middle" dominant-baseline="middle" text-anchor="middle" y="1144" x="288">Console.WriteLine("Enter username:")</text><line style="stroke-dasharray: 3, 3; fill: none;" marker-end="url(#arrowhead)" stroke="none" stroke-width="2" class="messageLine1" y2="1181" x2="80" y1="1181" x1="495"></line><text style="font-size: 16px; font-weight: 400;" dy="1em" class="messageText" alignment-baseline="middle" dominant-baseline="middle" text-anchor="middle" y="1196" x="290">User enters username</text><line style="fill: none;" marker-end="url(#arrowhead)" stroke="none" stroke-width="2" class="messageLine0" y2="1233" x2="500" y1="1233" x1="80"></line><text style="font-size: 16px; font-weight: 400;" dy="1em" class="messageText" alignment-baseline="middle" dominant-baseline="middle" text-anchor="middle" y="1248" x="505">string userName = Console.ReadLine()</text><path style="fill: none;" marker-end="url(#arrowhead)" stroke="none" stroke-width="2" class="messageLine0" d="M 505,1285 C 565,1275 565,1315 505,1305"></path><text style="font-size: 16px; font-weight: 400;" dy="1em" class="messageText" alignment-baseline="middle" dominant-baseline="middle" text-anchor="middle" y="1330" x="288">Console.WriteLine("Enter password")</text><line style="stroke-dasharray: 3, 3; fill: none;" marker-end="url(#arrowhead)" stroke="none" stroke-width="2" class="messageLine1" y2="1367" x2="80" y1="1367" x1="495"></line><text style="font-size: 16px; font-weight: 400;" dy="1em" class="messageText" alignment-baseline="middle" dominant-baseline="middle" text-anchor="middle" y="1382" x="290">User enters password</text><line style="fill: none;" marker-end="url(#arrowhead)" stroke="none" stroke-width="2" class="messageLine0" y2="1419" x2="500" y1="1419" x1="80"></line><text style="font-size: 16px; font-weight: 400;" dy="1em" class="messageText" alignment-baseline="middle" dominant-baseline="middle" text-anchor="middle" y="1434" x="505">string password = Console.ReadLine()</text><path style="fill: none;" marker-end="url(#arrowhead)" stroke="none" stroke-width="2" class="messageLine0" d="M 505,1471 C 565,1461 565,1501 505,1491"></path><text style="font-size: 16px; font-weight: 400;" dy="1em" class="messageText" alignment-baseline="middle" dominant-baseline="middle" text-anchor="middle" y="1516" x="778">secManager.authenticate(string userName, string password): Results</text><line style="fill: none;" marker-end="url(#arrowhead)" stroke="none" stroke-width="2" class="messageLine0" y2="1553" x2="1050" y1="1553" x1="505"></line><text style="font-size: 16px; font-weight: 400;" dy="1em" class="messageText" alignment-baseline="middle" dominant-baseline="middle" text-anchor="middle" y="1568" x="1308">authNService.getSalt(string userName): string</text><line style="fill: none;" marker-end="url(#arrowhead)" stroke="none" stroke-width="2" class="messageLine0" y2="1605" x2="1561" y1="1605" x1="1055"></line><text style="font-size: 16px; font-weight: 400;" dy="1em" class="messageText" alignment-baseline="middle" dominant-baseline="middle" text-anchor="middle" y="1620" x="1930">var sqlDAO = new SqlDAO(string connectionString)</text><line style="fill: none;" marker-end="url(#arrowhead)" stroke="none" stroke-width="2" class="messageLine0" y2="1657" x2="2293" y1="1657" x1="1566"></line><text style="font-size: 16px; font-weight: 400;" dy="1em" class="messageText" alignment-baseline="middle" dominant-baseline="middle" text-anchor="middle" y="1672" x="2298">SqlDao(string connectionString)</text><path style="fill: none;" marker-end="url(#arrowhead)" stroke="none" stroke-width="2" class="messageLine0" d="M 2298,1709 C 2358,1699 2358,1739 2298,1729"></path><text style="font-size: 16px; font-weight: 400;" dy="1em" class="messageText" alignment-baseline="middle" dominant-baseline="middle" text-anchor="middle" y="1754" x="1927">return SqlDAO instance</text><line style="stroke-dasharray: 3, 3; fill: none;" marker-end="url(#arrowhead)" stroke="none" stroke-width="2" class="messageLine1" y2="1791" x2="1566" y1="1791" x1="2288"></line><text style="font-size: 16px; font-weight: 400;" dy="1em" class="messageText" alignment-baseline="middle" dominant-baseline="middle" text-anchor="middle" y="1806" x="1930">authNUser = sqlDAO.getUser(string userName)</text><line style="fill: none;" marker-end="url(#arrowhead)" stroke="none" stroke-width="2" class="messageLine0" y2="1843" x2="2293" y1="1843" x1="1566"></line><text style="font-size: 16px; font-weight: 400;" dy="1em" class="messageText" alignment-baseline="middle" dominant-baseline="middle" text-anchor="middle" y="1858" x="2595"></text><line style="fill: none;" marker-end="url(#arrowhead)" stroke="none" stroke-width="2" class="messageLine0" y2="1853" x2="2892" y1="1853" x1="2298"></line><text style="font-size: 16px; font-weight: 400;" dy="1em" class="messageText" alignment-baseline="middle" dominant-baseline="middle" text-anchor="middle" y="1868" x="2897">Select * from User where Username == userName</text><path style="fill: none;" marker-end="url(#arrowhead)" stroke="none" stroke-width="2" class="messageLine0" d="M 2897,1905 C 2957,1895 2957,1935 2897,1925"></path><text style="font-size: 16px; font-weight: 400;" dy="1em" class="messageText" alignment-baseline="middle" dominant-baseline="middle" text-anchor="middle" y="1950" x="2593">return row</text><line style="stroke-dasharray: 3, 3; fill: none;" marker-end="url(#arrowhead)" stroke="none" stroke-width="2" class="messageLine1" y2="1987" x2="2298" y1="1987" x1="2887"></line><text style="font-size: 16px; font-weight: 400;" dy="1em" class="messageText" alignment-baseline="middle" dominant-baseline="middle" text-anchor="middle" y="2002" x="2495">var tempUser = new UserAccount(string[] row)</text><line style="fill: none;" marker-end="url(#arrowhead)" stroke="none" stroke-width="2" class="messageLine0" y2="2039" x2="2692" y1="2039" x1="2298"></line><text style="font-size: 16px; font-weight: 400;" dy="1em" class="messageText" alignment-baseline="middle" dominant-baseline="middle" text-anchor="middle" y="2054" x="2697">UserAccount(string[] row)</text><path style="fill: none;" marker-end="url(#arrowhead)" stroke="none" stroke-width="2" class="messageLine0" d="M 2697,2091 C 2757,2081 2757,2121 2697,2111"></path><text style="font-size: 16px; font-weight: 400;" dy="1em" class="messageText" alignment-baseline="middle" dominant-baseline="middle" text-anchor="middle" y="2136" x="2493">return UserAccount instance</text><line style="stroke-dasharray: 3, 3; fill: none;" marker-end="url(#arrowhead)" stroke="none" stroke-width="2" class="messageLine1" y2="2173" x2="2298" y1="2173" x1="2687"></line><text style="font-size: 16px; font-weight: 400;" dy="1em" class="messageText" alignment-baseline="middle" dominant-baseline="middle" text-anchor="middle" y="2188" x="1927">return UserAccount instance</text><line style="stroke-dasharray: 3, 3; fill: none;" marker-end="url(#arrowhead)" stroke="none" stroke-width="2" class="messageLine1" y2="2225" x2="1566" y1="2225" x1="2288"></line><text style="font-size: 16px; font-weight: 400;" dy="1em" class="messageText" alignment-baseline="middle" dominant-baseline="middle" text-anchor="middle" y="2240" x="1306">return salt string</text><line style="stroke-dasharray: 3, 3; fill: none;" marker-end="url(#arrowhead)" stroke="none" stroke-width="2" class="messageLine1" y2="2277" x2="1055" y1="2277" x1="1556"></line><text style="font-size: 16px; font-weight: 400;" dy="1em" class="messageText" alignment-baseline="middle" dominant-baseline="middle" text-anchor="middle" y="2292" x="1055">string digest = makeDigest(string password, string salt)</text><path style="fill: none;" marker-end="url(#arrowhead)" stroke="none" stroke-width="2" class="messageLine0" d="M 1055,2329 C 1115,2319 1115,2359 1055,2349"></path><text style="font-size: 16px; font-weight: 400;" dy="1em" class="messageText" alignment-baseline="middle" dominant-baseline="middle" text-anchor="middle" y="2374" x="1308">authNService.validUser(string userName, string digest): Results</text><line style="fill: none;" marker-end="url(#arrowhead)" stroke="none" stroke-width="2" class="messageLine0" y2="2411" x2="1561" y1="2411" x1="1055"></line><text style="font-size: 16px; font-weight: 400;" dy="1em" class="messageText" alignment-baseline="middle" dominant-baseline="middle" text-anchor="middle" y="2426" x="1830">var result = new Results()</text><line style="fill: none;" marker-end="url(#arrowhead)" stroke="none" stroke-width="2" class="messageLine0" y2="2463" x2="2093" y1="2463" x1="1566"></line><text style="font-size: 16px; font-weight: 400;" dy="1em" class="messageText" alignment-baseline="middle" dominant-baseline="middle" text-anchor="middle" y="2478" x="2098">Results()</text><path style="fill: none;" marker-end="url(#arrowhead)" stroke="none" stroke-width="2" class="messageLine0" d="M 2098,2515 C 2158,2505 2158,2545 2098,2535"></path><text style="font-size: 16px; font-weight: 400;" dy="1em" class="messageText" alignment-baseline="middle" dominant-baseline="middle" text-anchor="middle" y="2560" x="1827">return Results instance</text><line style="stroke-dasharray: 3, 3; fill: none;" marker-end="url(#arrowhead)" stroke="none" stroke-width="2" class="messageLine1" y2="2597" x2="1566" y1="2597" x1="2088"></line><text style="font-size: 16px; font-weight: 400;" dy="1em" class="messageText" alignment-baseline="middle" dominant-baseline="middle" text-anchor="middle" y="2612" x="1566">if(authNUser.getUsername()==userName &amp;&amp; authNUser.getDigest()==digest) result.IsSuccessful = true else result.IsSuccessful = false</text><path style="fill: none;" marker-end="url(#arrowhead)" stroke="none" stroke-width="2" class="messageLine0" d="M 1566,2649 C 1626,2639 1626,2679 1566,2669"></path><text style="font-size: 16px; font-weight: 400;" dy="1em" class="messageText" alignment-baseline="middle" dominant-baseline="middle" text-anchor="middle" y="2694" x="1306">return result</text><line style="stroke-dasharray: 3, 3; fill: none;" marker-end="url(#arrowhead)" stroke="none" stroke-width="2" class="messageLine1" y2="2731" x2="1055" y1="2731" x1="1556"></line><text style="font-size: 16px; font-weight: 400;" dy="1em" class="messageText" alignment-baseline="middle" dominant-baseline="middle" text-anchor="middle" y="2746" x="1055">result = authNService.validUser(userName, digest)</text><path style="fill: none;" marker-end="url(#arrowhead)" stroke="none" stroke-width="2" class="messageLine0" d="M 1055,2783 C 1115,2773 1115,2813 1055,2803"></path><text style="font-size: 16px; font-weight: 400;" dy="1em" class="messageText" alignment-baseline="middle" dominant-baseline="middle" text-anchor="middle" y="2828" x="775">return result</text><line style="stroke-dasharray: 3, 3; fill: none;" marker-end="url(#arrowhead)" stroke="none" stroke-width="2" class="messageLine1" y2="2865" x2="505" y1="2865" x1="1045"></line><text style="font-size: 16px; font-weight: 400;" dy="1em" class="messageText" alignment-baseline="middle" dominant-baseline="middle" text-anchor="middle" y="2880" x="505">result = secManager.authenticate(userName, password)</text><path style="fill: none;" marker-end="url(#arrowhead)" stroke="none" stroke-width="2" class="messageLine0" d="M 505,2917 C 565,2907 565,2947 505,2937"></path><text style="font-size: 16px; font-weight: 400;" dy="1em" class="messageText" alignment-baseline="middle" dominant-baseline="middle" text-anchor="middle" y="2962" x="505">if(result.IsSuccessful) Console.WriteLine("Welcome Authenticated User") else Console.WriteLine("Not a valid User.")</text><path style="fill: none;" marker-end="url(#arrowhead)" stroke="none" stroke-width="2" class="messageLine0" d="M 505,2999 C 565,2989 565,3029 505,3019"></path><text style="font-size: 16px; font-weight: 400;" dy="1em" class="messageText" alignment-baseline="middle" dominant-baseline="middle" text-anchor="middle" y="3044" x="288">Console.WriteLine("Welcome Authenticated User")</text><line style="stroke-dasharray: 3, 3; fill: none;" marker-end="url(#arrowhead)" stroke="none" stroke-width="2" class="messageLine1" y2="3081" x2="80" y1="3081" x1="495"></line><g><rect class="actor" ry="3" rx="3" height="65" width="150" stroke="#666" fill="#eaeaea" y="3101" x="0"></rect><text style="text-anchor: middle; font-size: 16px; font-weight: 400;" class="actor" alignment-baseline="central" dominant-baseline="central" y="3133.5" x="75"><tspan dy="0" x="75">User</tspan></text></g><g><rect class="actor" ry="3" rx="3" height="65" width="150" stroke="#666" fill="#eaeaea" y="3101" x="425"></rect><text style="text-anchor: middle; font-size: 16px; font-weight: 400;" class="actor" alignment-baseline="central" dominant-baseline="central" y="3133.5" x="500"><tspan dy="0" x="500">Console</tspan></text></g><g><rect class="actor" ry="3" rx="3" height="65" width="150" stroke="#666" fill="#eaeaea" y="3101" x="975"></rect><text style="text-anchor: middle; font-size: 16px; font-weight: 400;" class="actor" alignment-baseline="central" dominant-baseline="central" y="3133.5" x="1050"><tspan dy="0" x="1050">Security Manager</tspan></text></g><g><rect class="actor" ry="3" rx="3" height="65" width="179" stroke="#666" fill="#eaeaea" y="3101" x="1471.5"></rect><text style="text-anchor: middle; font-size: 16px; font-weight: 400;" class="actor" alignment-baseline="central" dominant-baseline="central" y="3133.5" x="1561"><tspan dy="0" x="1561">Authentication Service</tspan></text></g><g><rect class="actor" ry="3" rx="3" height="65" width="150" stroke="#666" fill="#eaeaea" y="3101" x="2018"></rect><text style="text-anchor: middle; font-size: 16px; font-weight: 400;" class="actor" alignment-baseline="central" dominant-baseline="central" y="3133.5" x="2093"><tspan dy="0" x="2093">Results</tspan></text></g><g><rect class="actor" ry="3" rx="3" height="65" width="150" stroke="#666" fill="#eaeaea" y="3101" x="2218"></rect><text style="text-anchor: middle; font-size: 16px; font-weight: 400;" class="actor" alignment-baseline="central" dominant-baseline="central" y="3133.5" x="2293"><tspan dy="0" x="2293">SqlDAO</tspan></text></g><g><rect class="actor" ry="3" rx="3" height="65" width="150" stroke="#666" fill="#eaeaea" y="3101" x="2617"></rect><text style="text-anchor: middle; font-size: 16px; font-weight: 400;" class="actor" alignment-baseline="central" dominant-baseline="central" y="3133.5" x="2692"><tspan dy="0" x="2692">User Account</tspan></text></g><g><rect class="actor" ry="3" rx="3" height="65" width="150" stroke="#666" fill="#eaeaea" y="3101" x="2817"></rect><text style="text-anchor: middle; font-size: 16px; font-weight: 400;" class="actor" alignment-baseline="central" dominant-baseline="central" y="3133.5" x="2892"><tspan dy="0" x="2892">Utification DS</tspan></text></g></g><g id="svg-pan-zoom-controls" transform="translate(1430 1085) scale(0.75)" class="svg-pan-zoom-control"><g id="svg-pan-zoom-zoom-in" transform="translate(30.5 5) scale(0.015)" class="svg-pan-zoom-control"><rect x="0" y="0" width="1500" height="1400" class="svg-pan-zoom-control-background"></rect><path d="M1280 576v128q0 26 -19 45t-45 19h-320v320q0 26 -19 45t-45 19h-128q-26 0 -45 -19t-19 -45v-320h-320q-26 0 -45 -19t-19 -45v-128q0 -26 19 -45t45 -19h320v-320q0 -26 19 -45t45 -19h128q26 0 45 19t19 45v320h320q26 0 45 19t19 45zM1536 1120v-960 q0 -119 -84.5 -203.5t-203.5 -84.5h-960q-119 0 -203.5 84.5t-84.5 203.5v960q0 119 84.5 203.5t203.5 84.5h960q119 0 203.5 -84.5t84.5 -203.5z" class="svg-pan-zoom-control-element"></path></g><g id="svg-pan-zoom-reset-pan-zoom" transform="translate(5 35) scale(0.4)" class="svg-pan-zoom-control"><rect x="2" y="2" width="182" height="58" class="svg-pan-zoom-control-background"></rect><path d="M33.051,20.632c-0.742-0.406-1.854-0.609-3.338-0.609h-7.969v9.281h7.769c1.543,0,2.701-0.188,3.473-0.562c1.365-0.656,2.048-1.953,2.048-3.891C35.032,22.757,34.372,21.351,33.051,20.632z" class="svg-pan-zoom-control-element"></path><path d="M170.231,0.5H15.847C7.102,0.5,0.5,5.708,0.5,11.84v38.861C0.5,56.833,7.102,61.5,15.847,61.5h154.384c8.745,0,15.269-4.667,15.269-10.798V11.84C185.5,5.708,178.976,0.5,170.231,0.5z M42.837,48.569h-7.969c-0.219-0.766-0.375-1.383-0.469-1.852c-0.188-0.969-0.289-1.961-0.305-2.977l-0.047-3.211c-0.03-2.203-0.41-3.672-1.142-4.406c-0.732-0.734-2.103-1.102-4.113-1.102h-7.05v13.547h-7.055V14.022h16.524c2.361,0.047,4.178,0.344,5.45,0.891c1.272,0.547,2.351,1.352,3.234,2.414c0.731,0.875,1.31,1.844,1.737,2.906s0.64,2.273,0.64,3.633c0,1.641-0.414,3.254-1.242,4.84s-2.195,2.707-4.102,3.363c1.594,0.641,2.723,1.551,3.387,2.73s0.996,2.98,0.996,5.402v2.32c0,1.578,0.063,2.648,0.19,3.211c0.19,0.891,0.635,1.547,1.333,1.969V48.569z M75.579,48.569h-26.18V14.022h25.336v6.117H56.454v7.336h16.781v6H56.454v8.883h19.125V48.569z M104.497,46.331c-2.44,2.086-5.887,3.129-10.34,3.129c-4.548,0-8.125-1.027-10.731-3.082s-3.909-4.879-3.909-8.473h6.891c0.224,1.578,0.662,2.758,1.316,3.539c1.196,1.422,3.246,2.133,6.15,2.133c1.739,0,3.151-0.188,4.236-0.562c2.058-0.719,3.087-2.055,3.087-4.008c0-1.141-0.504-2.023-1.512-2.648c-1.008-0.609-2.607-1.148-4.796-1.617l-3.74-0.82c-3.676-0.812-6.201-1.695-7.576-2.648c-2.328-1.594-3.492-4.086-3.492-7.477c0-3.094,1.139-5.664,3.417-7.711s5.623-3.07,10.036-3.07c3.685,0,6.829,0.965,9.431,2.895c2.602,1.93,3.966,4.73,4.093,8.402h-6.938c-0.128-2.078-1.057-3.555-2.787-4.43c-1.154-0.578-2.587-0.867-4.301-0.867c-1.907,0-3.428,0.375-4.565,1.125c-1.138,0.75-1.706,1.797-1.706,3.141c0,1.234,0.561,2.156,1.682,2.766c0.721,0.406,2.25,0.883,4.589,1.43l6.063,1.43c2.657,0.625,4.648,1.461,5.975,2.508c2.059,1.625,3.089,3.977,3.089,7.055C108.157,41.624,106.937,44.245,104.497,46.331z M139.61,48.569h-26.18V14.022h25.336v6.117h-18.281v7.336h16.781v6h-16.781v8.883h19.125V48.569z M170.337,20.14h-10.336v28.43h-7.266V20.14h-10.383v-6.117h27.984V20.14z" class="svg-pan-zoom-control-element"></path></g><g id="svg-pan-zoom-zoom-out" transform="translate(30.5 70) scale(0.015)" class="svg-pan-zoom-control"><rect x="0" y="0" width="1500" height="1400" class="svg-pan-zoom-control-background"></rect><path d="M1280 576v128q0 26 -19 45t-45 19h-896q-26 0 -45 -19t-19 -45v-128q0 -26 19 -45t45 -19h896q26 0 45 19t19 45zM1536 1120v-960q0 -119 -84.5 -203.5t-203.5 -84.5h-960q-119 0 -203.5 84.5t-84.5 203.5v960q0 119 84.5 203.5t203.5 84.5h960q119 0 203.5 -84.5 t84.5 -203.5z" class="svg-pan-zoom-control-element"></path></g></g></svg>